<?xml version="1.0" encoding="UTF-8"?>
<svg xmlns="http://www.w3.org/2000/svg" xmlns:xlink="http://www.w3.org/1999/xlink" height="42" style="fill-opacity:1; color-rendering:auto; color-interpolation:auto; text-rendering:auto; stroke:black; stroke-linecap:square; stroke-miterlimit:10; shape-rendering:auto; stroke-opacity:1; fill:black; stroke-dasharray:none; font-weight:normal; stroke-width:1; font-family:'Dialog'; font-style:normal; stroke-linejoin:miter; font-size:12px; stroke-dashoffset:0; image-rendering:auto;" width="48" class="svg__logo">
  <!--Generated by the Batik Graphics2D SVG Generator-->
  <defs id="genericDefs"/>
  <g>
    <g style="fill:rgb(30,144,255); stroke:rgb(30,144,255);">
      <rect height="42" style="stroke:none;" width="48" x="0" y="0"/>
    </g>
    <g style="font-size:100px; fill:white; text-rendering:geometricPrecision; image-rendering:optimizeQuality; color-rendering:optimizeQuality; font-family:'jlm_cmsy10'; stroke:white; color-interpolation:linearRGB;" transform="scale(40,40) translate(0.175,0.8583) scale(0.01,0.01)">
      <path d="M78 -66.2969 L44.2031 1.5 Q43.4062 3 42.5938 3.2031 Q42.2031 3.2969 41.5938 3.2969 Q40 3.2969 39.4062 2.2031 Q39.2969 2 39 1.5 L5.2031 -66.2969 Q4.7031 -67.2031 4.7031 -67.5 Q5.2969 -68.2969 6.9062 -68.2969 L76.2969 -68.2969 Q78.4062 -68.2969 78.5 -67.5 Q78.5 -67.2031 78 -66.2969 ZM17 -61.2031 L44.5 -6.0938 L44.5938 -6.0938 L72 -61.2031 L17 -61.2031 Z" style="stroke:none;"/>
    </g>
  </g>
</svg>
